<svg width="23" height="16" viewBox="0 0 23 16" fill="none" xmlns="http://www.w3.org/2000/svg">
    <path d="M21.8363 8.70711C22.2268 8.31658 22.2268 7.68342 21.8363 7.29289L15.4723 0.928932C15.0818 0.538407 14.4486 0.538407 14.0581 0.928932C13.6676 1.31946 13.6676 1.95262 14.0581 2.34315L19.7149 8L14.0581 13.6569C13.6676 14.0474 13.6676 14.6805 14.0581 15.0711C14.4486 15.4616 15.0818 15.4616 15.4723 15.0711L21.8363 8.70711ZM1.00012 7C0.447834 7 0.000118304 7.44771 0.000118256 8C0.000118207 8.55228 0.447833 9 1.00012 9L1.00012 7ZM21.1292 7L1.00012 7L1.00012 9L21.1292 9L21.1292 7Z" fill="#1E1B1B"/>
</svg>
